# xmcd
#
# Track frame offsets:
#	150
#	37247
#	47375
#	70265
#	84065
#	102542
#	126242
#	157937
#	174780
#	191532
#	201445
#	217725
#	235920
#	251705
#
# Disc length: 4193 seconds
#
# Revision: 1
# Processed by: cddbd v1.5PL3 Copyright (c) Steve Scherf et al.
# Submitted via: EasyCDDAExtractor 6.5.0.1
#
DISCID=b8105f0e
DTITLE=The Turtle Creek Chorale - A Roamin' Holiday:  Music From Around The Wo
DTITLE=rld
DYEAR=1900
DGENRE=
TTITLE0=Gloria!(A Roamin' Holiday:  Music From Around The World US CD Version)
TTITLE1=Calypso Noel(A Roamin' Holiday:  Music From Around The World US CD Ver
TTITLE1=sion)
TTITLE2=Carol From An Irish Cabin(A Roamin' Holiday:  Music From Around The Wo
TTITLE2=rld US CD Version)
TTITLE3=Las Reyes Magos(A Roamin' Holiday:  Music From Around The World US CD 
TTITLE3=Version)
TTITLE4=Nigun Talmidei Besht(A Roamin' Holiday:  Music From Around The World U
TTITLE4=S CD Version)
TTITLE5=Betelehemu(A Roamin' Holiday:  Music From Around The World US CD Versi
TTITLE5=on)
TTITLE6=Trois Noels Francais(A Roamin' Holiday:  Music From Around The World U
TTITLE6=S CD Version)
TTITLE7=Still, Still, Still(A Roamin' Holiday:  Music From Around The World US
TTITLE7=CD Version)
TTITLE8=Have Yourself A Merry Little Christmas(A Roamin' Holiday:  Music From 
TTITLE8=Around The World US CD Version)
TTITLE9=Jingle Bell Rock/Rock Around The Clock(A Roamin' Holiday:  Music From 
TTITLE9=Around The World US CD Version)
TTITLE10=A Song For Christmas(A Roamin' Holiday:  Music From Around The World 
TTITLE10=US CD Version)
TTITLE11=Some Children See Him(A Roamin' Holiday:  Music From Around The World
TTITLE11=US CD Version)
TTITLE12=O Holy Night(A Roamin' Holiday:  Music From Around The World US CD Ve
TTITLE12=rsion)
TTITLE13=A Christmas Flourish(A Roamin' Holiday:  Music From Around The World 
TTITLE13=US CD Version)
EXTD=
EXTT0=
EXTT1=
EXTT2=
EXTT3=
EXTT4=
EXTT5=
EXTT6=
EXTT7=
EXTT8=
EXTT9=
EXTT10=
EXTT11=
EXTT12=
EXTT13=
PLAYORDER=
